<?xml version="1.0" encoding="UTF-8"?>
<svg width="500px" height="126px" viewBox="0 0 500 126" version="1.1" xmlns="http://www.w3.org/2000/svg" xmlns:xlink="http://www.w3.org/1999/xlink">
    <title>Artboard</title>
    <g id="Artboard" stroke="none" stroke-width="1" fill="none" fill-rule="evenodd">
        <path d="M49.4215758,79.8401087 C48.5015669,80.205647 47.8324696,80.9516218 47.0946513,81.5076444 C45.8768515,82.4244165 44.6377428,83.2315804 43.3006136,84.0334236 C41.7706394,84.9507278 40.0739236,85.7951372 38.1918209,86.3575448 C36.7699891,86.7826759 34.5267017,87.140233 32.7793774,86.8624878 C31.3426294,86.634758 30.1765035,86.7204227 28.9853397,86.3575448 C24.6921427,85.0480983 22.1649151,82.138158 20.537453,78.172573 C19.5812191,75.8425989 19.301008,73.1960378 18.8178302,70.3414338 C18.3687465,67.690616 18.4939359,63.3132018 18.9190472,60.7922113 C20.478321,51.5340361 22.4653696,46.0818222 31.8178163,44.5233628 C37.0688454,43.6486248 42.507925,46.7192529 45.2738115,48.6666622 C46.2241854,49.3360176 48.865948,51.8048643 50.5344296,50.7380459 C52.6610511,49.3780519 52.8389798,40.1267937 51.6472834,37.2482461 C50.8604547,35.3481919 48.9064348,34.4106686 47.1958682,33.4082317 C42.9367653,30.912249 37.4907603,29.6607991 30.6543541,29.7704074 C29.7274198,29.8379814 28.7994202,29.9055554 27.872486,29.9725974 C25.712303,30.3556943 23.6261683,30.5850204 21.7009153,31.1852055 C14.2145896,33.5189042 8.98114028,37.8351293 5.31122656,43.9678722 C3.17395064,47.5397188 1.89488795,51.7053656 0.859811401,56.3967064 C0.245584297,59.1832043 0.505552057,62.2043491 0,65.2888112 C0.0170470662,66.4843928 0.0335614116,67.6805065 0.0506084778,68.8760881 C0.0841698893,69.8865062 0.118264022,70.8969243 0.151825433,71.9078744 C0.560955022,74.3442643 0.673359115,76.7662881 1.21407075,78.9302535 C3.92881604,89.7979678 9.33007242,97.3167767 19.6270331,100.554478 C21.6710829,101.197229 23.8706872,101.466993 26.2029389,101.868181 C27.2822313,101.935755 28.3615237,102.002797 29.4402833,102.070371 C31.2605904,102.368335 33.5630097,102.043767 35.1057692,101.767618 C40.0590074,100.879046 44.1721448,99.9260922 47.7520287,97.7759609 C49.1983658,96.9070758 50.9675316,96.053621 51.7485003,94.5425166 C52.9961325,92.1268777 52.9258133,83.7482292 51.9509342,81.0016372 C51.6243764,80.0832688 50.6819932,79.3383581 49.4215758,79.8401087 Z M499.794105,34.644813 C499.55106,33.0058296 499.705773,31.6429416 498.914006,30.6462264 C497.870093,29.3323747 493.542942,28.7364777 491.093762,28.7732548 C490.393003,28.8409462 489.692243,28.9086375 488.991483,28.9757959 C487.257518,29.3414358 485.70182,29.8733725 484.397197,30.6968617 C481.777244,32.3507692 479.405154,34.7636726 477.554484,37.2256122 C476.707041,38.3896902 475.859598,39.5537681 475.012691,40.7178461 L475.012691,40.8009945 C474.99556,40.1933714 474.978964,39.5846823 474.961298,38.9770592 C474.961833,37.18617 475.363874,32.7222721 474.656154,31.6301495 C473.127759,29.2710794 460.600808,29.3227807 459.491584,31.9344941 C459.046182,32.9834434 459.339013,35.0594891 459.339013,36.3930619 L459.339013,93.536818 C459.339013,94.9348842 459.014597,97.3184724 459.591693,98.2720143 C460.204122,99.2836535 461.821383,99.57414 463.184358,99.8337123 C466.793084,100.520753 476.089259,100.406157 477.35159,98.1712768 C477.717227,97.5252775 477.554484,96.1549274 477.554484,95.1992535 L477.554484,57.1162082 C478.271304,56.0534008 478.988124,54.9900603 479.704944,53.9277859 C481.901443,50.7207084 484.555658,47.1186759 488.747368,46.0318834 C491.568073,45.3011366 494.218005,46.5787442 496.226065,47.2465966 C497.305845,47.6058404 498.523208,47.4507366 499.011973,46.6395065 C500.00824,44.984533 500.214882,37.4825195 499.794105,34.644813 Z M400.596421,57.5433071 C400.578466,48.3872269 406.861475,39.7460539 417.58154,42.0445998 C419.037979,42.3566335 420.434085,42.7953345 421.551817,43.4621393 C425.737491,45.9599543 427.52999,50.8629008 427.431553,57.5433071 L400.596421,57.5433071 Z M444.625487,52.0002266 C443.406861,46.4395065 441.668986,42.1355124 438.754215,38.3770201 C435.179686,33.7670775 429.746845,30.9795468 423.048366,29.4965464 C421.324753,29.114642 419.478062,29.1959095 417.628731,28.8910234 L415.822186,28.8910234 C414.021979,28.5914488 410.948211,28.9106763 409.299079,29.2442452 C406.728714,29.7642514 404.317346,30.2316727 402.123609,31.1112746 C393.467511,34.579222 387.661212,41.2920294 384.76176,50.5368792 C384.102529,52.6376193 383.780837,54.7335789 383.306487,57.0967123 C383.122135,58.626986 382.937783,60.1577907 382.754487,61.6885955 C382.737584,62.3945079 382.720681,63.1014827 382.703777,63.8073951 L382.703777,67.8442154 C382.737584,68.8364234 382.770862,69.8291625 382.804141,70.8213705 C383.475521,74.8332263 383.687869,78.5178872 384.861595,81.8716351 C388.236454,91.5132619 394.366029,96.8370844 404.381262,99.8344235 C406.71498,100.5329 409.281647,100.605669 411.908005,101.044938 C413.631089,101.09593 415.354174,101.14639 417.076731,101.19685 C424.169797,101.19685 430.261869,100.085662 435.693125,98.3710761 C437.915915,97.669413 440.735076,96.9921833 441.664232,94.9902391 C442.66417,92.8379764 442.899232,83.83268 440.711306,83.1830706 C439.064814,82.694934 437.334334,83.7662849 436.245125,84.1928068 C433.531609,85.2545968 430.636912,85.910049 427.61491,86.6648282 C425.825797,87.1115342 423.896174,87.0987864 421.943838,87.421732 C420.210717,87.7085587 417.453887,87.6389767 415.822186,87.3712717 C413.801707,87.0392964 412.087603,86.95856 410.45326,86.3116064 C404.228075,83.8486148 400.887551,78.4844241 401.019609,69.6602535 L430.575109,69.6602535 C433.833229,69.6607846 440.727152,70.1866336 442.71805,69.0048013 C445.055994,67.6174099 445.328032,64.964794 445.328032,61.1834618 C445.311128,60.0908645 445.294225,58.9972049 445.277322,57.9040764 C444.944009,55.8856662 445.035393,53.8741611 444.625487,52.0002266 Z M270.377734,81.427523 C268.23141,84.3882963 264.417183,87.5309657 260.553591,88.7130214 C254.244334,90.6441239 248.777958,87.5325754 247.688254,82.4464626 C247.284932,80.5657974 247.640989,78.2714395 248.186629,76.8930004 C250.933209,69.955197 260.780459,70.399474 270.377734,70.4729836 L270.377734,81.427523 Z M289.203492,60.7917638 C289.203492,55.8662713 289.512254,50.520866 288.597659,46.3933138 C286.477777,36.8228009 281.728369,32.3267647 272.399612,29.9811911 C270.598057,29.5278761 268.796503,29.5162119 266.798319,29.1752978 C264.120433,28.7188017 259.024,28.601629 256.251519,29.0745611 C253.49445,29.5453725 250.822941,29.8131199 248.379417,30.4843442 C243.780404,31.747794 236.299436,33.7121589 234.653591,37.6833041 C233.438206,40.6163315 233.954227,49.6874026 237.580187,49.1121433 C239.819642,48.756914 241.386303,47.5051285 243.18148,46.6451555 C249.094724,43.8128648 264.39412,39.2420713 269.421998,46.2925772 C271.415931,49.0888148 271.488737,53.5450865 271.440908,58.4260428 C254.989368,58.4191503 240.300056,59.2075472 233.745374,68.9980902 C232.416262,70.9836628 231.505919,73.2178959 230.919218,75.996107 C230.835252,76.9022067 230.751286,77.8088367 230.66732,78.7149364 C230.650314,79.7721412 230.633308,80.8293459 230.616302,81.8865506 C230.914967,83.6738311 230.948979,85.3683277 231.424079,86.9207327 C233.615704,94.0825791 238.603194,98.0685697 245.95715,100.111403 C248.347531,100.775205 253.138922,101.555118 256.352491,101.017503 C258.475031,100.662274 260.428043,100.48625 262.256701,99.9099298 C265.95281,98.7450959 268.972407,96.7743687 271.693339,94.6239061 C272.534064,93.818543 273.375321,93.0126497 274.216046,92.2072866 C274.197446,94.2336841 273.729786,98.0022955 274.922851,98.9030934 C276.974178,100.453378 287.684128,100.305984 288.951061,98.3495719 C289.450076,97.5792016 289.203492,95.6599031 289.203492,94.4728011 L289.203492,60.7917638 Z M224.560135,30.6462264 C223.516228,29.3323747 219.189099,28.7364777 216.739397,28.7732548 C216.039176,28.8409462 215.33842,28.9086375 214.638199,28.9757959 C212.903708,29.3414358 211.348018,29.8733725 210.043402,30.6968617 C207.422928,32.3507692 205.051385,34.7636726 203.20019,37.2256122 C202.353286,38.3896902 201.505848,39.5537681 200.658945,40.7178461 L200.658945,40.8009945 C200.641814,40.1933714 200.624683,39.5846823 200.608088,38.9770592 C200.608088,37.18617 201.010126,32.7222721 200.30241,31.6301495 C198.774023,29.2710794 186.246603,29.3227807 185.13792,31.9344941 C184.69252,32.9834434 184.984814,35.0594891 184.984814,36.3930619 L184.984814,93.536818 C184.984814,94.9348842 184.660935,97.3184724 185.238028,98.2720143 C185.850453,99.2836535 187.467706,99.57414 188.830674,99.8337123 C192.439381,100.520753 201.734972,100.406157 202.997832,98.1712768 C203.362932,97.5252775 203.20019,96.1549274 203.20019,95.1992535 L203.20019,57.1162082 C203.917006,56.0534008 204.634357,54.9900603 205.351174,53.9277859 C207.547126,50.7207084 210.201862,47.1186759 214.39355,46.0318834 C217.214241,45.3011366 219.864159,46.5787442 221.871673,47.2465966 C222.951447,47.6058404 224.169339,47.4507366 224.658102,46.6395065 C225.654364,44.984533 225.861004,37.4825195 225.440229,34.644813 C225.197186,33.0058296 225.351898,31.6429416 224.560135,30.6462264 Z M100.173502,54.6716005 C99.1409324,59.660333 96.4768076,62.379723 91.3294852,63.2888398 C81.8334889,64.9664338 76.090927,56.1549523 79.5376418,47.8179312 C80.5744933,45.3092356 82.4710161,43.3753056 85.0264775,42.3754363 C86.0408469,41.9784605 87.2918133,42.0989331 88.4325104,41.6695837 C94.0064568,41.6441093 97.1587636,43.282961 99.156991,46.7591523 C99.6532023,47.6220969 99.9379751,48.7594217 100.173502,49.8335914 C100.484503,51.2495423 100.45988,53.2917383 100.173502,54.6716005 Z M79.7013264,98.6913574 C80.3117957,98.2036871 80.922801,97.7160168 81.5332704,97.2283465 C84.1965031,97.312281 86.8602718,97.3967468 89.5240406,97.4806813 C91.5596529,97.5311483 93.5952653,97.5816153 95.6308777,97.6320822 C100.41119,98.3710249 105.562394,99.9907491 104.130283,106.207749 C103.930366,107.074718 103.628616,107.983124 103.214311,108.679037 C99.9138105,114.218185 87.5715034,115.530327 80.2104975,112.512933 C77.1602947,111.262415 74.5308281,108.642382 75.9350683,104.038732 C76.5680484,101.963211 78.1636297,99.9179704 79.7013264,98.6913574 Z M155.134237,45.8783561 L165.780453,45.8783561 C167.0935,45.8783561 169.234281,46.1572661 170.120231,45.6274958 C172.08742,44.4509931 172.078952,40.0170121 171.885779,36.8934318 C171.778872,35.1675769 171.727536,33.4750642 171.028408,32.3250236 C170.238781,31.0278539 168.483817,31.2210269 166.386434,31.2210269 L155.134237,31.2210269 L155.134237,20.7801606 C155.134237,19.4014878 155.43908,17.2554156 154.983933,16.1614745 C154.512908,15.031545 153.241671,14.7129419 151.92386,14.4049236 C148.537775,13.6142376 140.119665,13.6137084 137.929135,15.2580601 C136.910875,16.0228134 137.126276,17.9450166 137.126276,19.7259126 L137.126276,31.2210269 L101.863465,31.2210269 C99.6655268,31.2210269 98.2508651,30.7256573 96.3953455,30.3673611 C93.0807079,29.728038 88.3567011,29.5131662 84.8081389,30.1165009 C74.2741223,31.9085109 67.3669956,36.366837 64.1920777,45.4771914 C62.9663551,48.994527 62.4016548,54.8950348 63.4394967,59.1808284 C64.0602966,61.7412963 65.028808,63.9789272 66.3492648,65.8572034 C66.9176698,66.5595062 67.4860748,67.2623383 68.0544799,67.9651703 C68.1714422,68.0826618 68.2889337,68.1996241 68.405896,68.3165863 C65.5903329,70.4092052 62.8679162,74.5849166 61.8845861,78.5065923 C60.3270293,84.72094 63.6220849,91.3745578 67.9041754,92.8627834 C66.9679477,93.6322998 66.0311908,94.4023455 65.0949632,95.1723911 C63.0203377,96.8447926 61.1431192,99.4999947 60.0290665,102.099097 C59.4998253,103.333287 59.1579355,104.701375 58.8747915,106.165256 C58.1677253,109.828133 59.2246199,113.63708 60.5302579,115.853541 C63.7125852,121.253916 69.5400599,123.491018 76.5816139,125.039577 C78.2984723,125.416926 79.9968073,125.381467 81.8491514,125.692131 C84.0740814,126.065246 86.5969741,125.995916 89.1050481,125.993269 C90.5599321,125.92341 92.9341081,125.809094 94.3889921,125.738704 C96.574229,125.511131 98.7118341,125.482023 100.70919,124.989299 C109.417854,122.840581 117.222574,119.341769 120.522922,111.837661 C121.235281,110.218712 121.771402,108.514556 122.178388,106.56695 C122.925148,102.992985 122.20485,98.6913144 121.125198,96.1255541 C118.689101,90.3361869 113.978325,87.1522731 107.431083,85.4841055 C105.745979,85.0543619 103.943383,84.9368704 102.114326,84.6309691 C100.492201,84.5642847 98.8700773,84.4970711 97.2484823,84.4303867 C95.8772183,84.3795796 94.5059544,84.3293017 93.1352197,84.2795531 C87.2569379,83.3269193 80.3386971,85.3300964 77.7358889,81.0162531 C77.2172326,80.1567657 77.0372905,78.6796541 77.3844728,77.4523443 C77.760234,76.1244786 78.6816429,75.3337926 79.1902437,74.2398515 C79.4538058,74.0805499 82.1015995,75.323737 82.9023414,75.5952377 C85.8115802,76.5833306 90.6684266,76.9934923 94.3392435,76.2975404 C96.0063532,75.9821128 97.6739922,75.8593289 99.2045577,75.3941261 C107.032564,73.0157171 111.878826,69.0347663 114.704444,61.6407405 C115.759751,58.8786317 116.593835,54.0112024 115.757634,50.3462085 C115.34906,48.5547278 114.684862,47.2490902 113.951863,45.8783561 L137.126276,45.8783561 L137.126276,72.3192359 C137.126276,79.6952676 137.132627,86.5478799 139.340092,91.5851957 C141.588309,96.7172456 145.595723,99.4200793 151.613725,100.840562 C153.775146,101.35128 157.667185,101.835535 160.366845,101.394148 C163.576163,100.869141 166.422952,100.686553 168.917795,99.5836148 C171.769875,98.3229627 171.318433,96.2298146 171.885779,92.7426457 L171.885779,89.7508464 C171.616925,88.0514536 171.877311,86.1445983 171.028408,85.0321337 C170.255187,84.0191665 168.303346,84.9501014 167.445446,85.2835232 C164.569549,86.3996925 160.042949,86.5738127 157.758215,84.7812735 C155.029977,82.6410229 155.133708,77.6005318 155.134237,72.7341609 L155.134237,45.8783561 Z M348.906561,75.8818426 C347.959572,76.9908035 347.011533,78.0997643 346.064019,79.2081943 C343.235133,82.7670615 340.016527,85.3072136 334.493214,86.2155104 C331.456337,86.7145163 328.875885,85.2334245 327.361123,84.0480202 C323.744393,81.2158966 322.52481,76.6234502 321.525824,71.0929791 C321.426556,69.6145415 321.326762,68.1355731 321.226968,66.6571356 C320.921285,64.7534814 321.11667,62.2499585 321.426556,60.507154 C322.524285,54.325321 324.071611,49.0050693 328.458853,46.1915257 C329.340188,45.6256318 330.417959,45.1818351 331.558757,44.8893328 C332.267292,44.8219139 333.400211,44.713619 334.108746,44.6456693 C339.804334,44.9105671 343.498273,48.1535742 346.113916,51.4337413 C346.710051,52.1811884 348.63029,53.856574 348.906561,54.659761 L348.906561,75.8818426 Z M367.661424,8.58281325 C367.661952,6.95969916 368.034343,3.45590139 367.510883,2.24255709 C366.495656,-0.108563586 360.590226,-0.0271417967 357.07602,0.0122386763 C356.418922,0.0622625205 355.349289,0.143684309 354.692719,0.193708153 C352.806468,0.465114116 350.729531,0.642858414 349.94038,1.98924486 C349.544219,2.66456675 349.688422,4.04075463 349.688422,5.08327283 L349.688422,37.9505349 C348.765632,37.1054513 347.842314,36.2598354 346.919525,35.4142196 C344.521434,33.5324716 341.992347,31.7949413 338.914973,30.5959655 C332.562674,28.1213817 323.144622,29.6194362 318.374323,32.4218358 C310.952391,36.782425 306.970716,43.4675263 304.630729,52.963542 C304.164844,54.8522082 304.067653,56.7350206 303.724314,58.7966416 C303.355621,61.0083341 302.965271,65.2215125 303.321287,67.673213 C303.371995,69.1100681 303.422175,70.5474554 303.472356,71.9848427 C303.935071,74.9878698 304.105684,77.8828668 304.781798,80.6070376 C307.213166,90.4133076 312.319937,97.9956451 321.596427,100.895432 C324.480475,101.796925 328.925394,102.59571 332.823612,101.960833 C334.876779,101.626099 336.833283,101.362676 338.562655,100.692675 C342.721282,99.081269 345.866267,96.7163119 349.033965,94.149663 C350.141629,93.0507349 351.249293,91.9512747 352.356958,90.8528788 C352.336886,93.1736658 351.869945,98.7875119 353.112304,99.7294503 C355.25738,101.355225 366.336664,101.517537 367.460175,99.0695613 C368.064451,97.7524441 367.661952,93.8378122 367.661424,92.0193923 L367.661424,8.58281325 L367.661424,8.58281325 Z" id="cgt_logo_black" fill="#1B1C1F"></path>
    </g>
</svg>